# xmcd
# 
# Track frame offsets:
#     150
#     13072
#     26940
#     41082
#     54727
#     67987
#     80137
#     93095
#     107730
#     120935
#     131880
#     144750
#     159135
#     169812
#     182720
#     195367
#     205850
#     220747
#     234650
#     247220
#     264705
#     278477
#     295942
#     308450
#     321555
# 
# Disc length: 4456
# 
# Revision: 6
# Processed by: cddbd v1.5.2PL0 Copyright (c) Steve Scherf et al.
# Submitted via: fre:ac v1.0.31
# 
DISCID=69116619
DTITLE=Muddy Waters - Muddy Waters  The Chess Box, 1947-1972 Disc 2
DYEAR=1989
DGENRE=Blues
TTITLE0=I Just Want to Make Love to You
TTITLE1=I'm Ready
TTITLE2=Smokestack Lightnin'
TTITLE3=Young Fashioned Ways
TTITLE4=Mannish Boy
TTITLE5=Trouble No More
TTITLE6=Forty Days and Forty Nights
TTITLE7=Just to Be with You
TTITLE8=Don't Go No Farther
TTITLE9=Diamonds at Your Feet
TTITLE10=I Love the Life I Live, I Live the Life I Love
TTITLE11=Rock Me
TTITLE12=Look What You Done
TTITLE13=Got My Mojo Working
TTITLE14=Good News
TTITLE15=Evil
TTITLE16=She's Nineteen Years Old
TTITLE17=Close to You
TTITLE18=Walkin' Thru the Park
TTITLE19=Blues Before Sunrise (with false starts and dialogue)
TTITLE20=Lonesome Road Blues
TTITLE21=Take the Bitter with the Sweet (alternate take) (with false starts and dialogue)
TTITLE22=She's Into Something
TTITLE23=Southbound Train
TTITLE24=Double Trouble
EXTD=\nYEAR: 2001  ID3G:   0
EXTT0=
EXTT1=
EXTT2=
EXTT3=
EXTT4=
EXTT5=
EXTT6=
EXTT7=
EXTT8=
EXTT9=
EXTT10=
EXTT11=
EXTT12=
EXTT13=
EXTT14=
EXTT15=
EXTT16=
EXTT17=
EXTT18=
EXTT19=
EXTT20=
EXTT21=
EXTT22=
EXTT23=
EXTT24=
PLAYORDER=
